<?xml version="1.0" standalone="no"?>
<!DOCTYPE svg PUBLIC "-//W3C//DTD SVG 20010904//EN"
 "http://www.w3.org/TR/2001/REC-SVG-20010904/DTD/svg10.dtd">
<svg version="1.0" xmlns="http://www.w3.org/2000/svg"
 width="514.000000pt" height="544.000000pt" viewBox="0 0 514.000000 544.000000"
 preserveAspectRatio="xMidYMid meet">

<g transform="translate(0.000000,544.000000) scale(0.100000,-0.100000)"
fill="#000000" stroke="none">
<path d="M2345 5058 c-225 -25 -545 -116 -755 -216 -346 -163 -636 -388 -892
-692 -274 -326 -460 -733 -524 -1145 -25 -159 -25 -494 0 -675 95 -698 427
-1245 976 -1609 441 -292 1031 -447 1563 -410 587 39 1118 268 1514 652 137
132 196 205 306 369 393 588 530 1351 362 2011 -164 645 -608 1196 -1200 1487
-247 122 -472 189 -753 224 -136 18 -461 20 -597 4z m609 -104 c406 -51 800
-220 1124 -481 50 -41 92 -76 92 -78 0 -2 -233 -190 -517 -418 -917 -734 -883
-706 -1618 -1322 -488 -409 -1008 -860 -1148 -995 -43 -41 -82 -76 -87 -78
-12 -4 -167 151 -221 223 -176 231 -310 542 -340 788 -9 77 -9 130 0 235 35
398 159 751 381 1082 317 473 797 821 1342 974 320 90 646 113 992 70z m1301
-645 c27 -28 36 -43 27 -46 -13 -5 -147 -111 -852 -679 -404 -324 -448 -359
-609 -494 -70 -58 -163 -134 -206 -170 -469 -382 -1536 -1312 -1639 -1428 -26
-30 -35 -28 -89 14 -40 31 -45 39 -35 52 57 70 1055 922 1812 1547 330 273
489 402 1177 954 112 90 218 176 235 190 93 77 124 101 134 101 3 0 24 -19 45
-41z m246 -304 c149 -222 280 -531 328 -770 11 -55 26 -168 32 -251 11 -133
10 -165 -5 -264 -22 -146 -54 -255 -121 -414 -334 -791 -1093 -1297 -2063
-1376 -316 -26 -704 33 -1056 161 -158 57 -518 250 -602 323 l-26 21 199 180
c316 287 324 294 888 779 259 223 874 733 1156 958 74 59 168 136 211 170 42
35 183 149 313 253 130 105 298 240 373 300 76 61 151 120 167 133 l30 22 48
-53 c27 -28 84 -106 128 -172z m325 -1761 c-72 -324 -196 -615 -379 -887 -269
-403 -690 -708 -1172 -851 -273 -81 -513 -112 -800 -103 -626 19 -1250 281
-1642 690 -81 84 -193 219 -193 231 0 4 -13 24 -29 44 -77 97 -212 371 -266
537 -36 110 -77 276 -71 283 3 3 11 -9 17 -27 59 -169 216 -407 376 -571 71
-72 81 -87 70 -101 -6 -9 -31 -40 -54 -69 -39 -47 -56 -87 -34 -78 4 2 34 34
66 71 34 40 63 66 71 63 16 -6 122 -89 123 -96 1 -3 -17 -29 -40 -59 -53 -70
-40 -80 19 -13 l47 53 110 -73 c347 -230 718 -373 1123 -434 l113 -17 -24 -26
c-36 -39 -117 -152 -117 -162 0 -30 37 4 101 92 60 82 77 99 94 95 11 -3 67
-6 124 -6 l103 0 -33 -37 c-43 -47 -189 -258 -189 -273 0 -5 6 -10 14 -10 14
0 67 69 175 227 l63 91 97 7 c53 4 105 9 115 12 16 5 15 -1 -11 -33 -46 -59
-205 -306 -211 -326 -3 -11 1 -18 11 -18 13 0 184 246 242 348 20 35 22 36
125 53 58 10 108 18 112 19 4 0 -7 -24 -26 -53 -51 -80 -186 -324 -186 -336 0
-16 15 -13 32 7 15 17 81 129 181 305 28 49 55 90 61 92 44 12 190 57 204 62
16 6 16 5 0 -13 -12 -14 -191 -359 -226 -436 -2 -5 6 -8 17 -8 16 0 42 43 138
234 l117 234 106 41 c59 22 109 41 112 41 3 0 -27 -75 -66 -167 -83 -192 -109
-263 -96 -263 15 0 36 37 89 160 127 296 126 293 173 319 23 13 80 45 126 72
45 26 82 44 82 40 0 -5 -14 -38 -30 -75 -51 -113 -151 -367 -148 -377 8 -23
33 22 113 206 47 110 94 218 102 240 13 32 37 56 119 117 102 75 118 82 90 42
-8 -11 -34 -73 -59 -139 -25 -66 -59 -155 -75 -197 -31 -81 -27 -106 7 -41 30
60 169 386 176 414 3 14 40 59 82 100 86 85 86 93 3 -131 -31 -85 -60 -168
-63 -185 -7 -29 -6 -29 13 6 10 20 37 79 59 130 115 273 131 312 131 322 1 7
13 28 28 48 15 20 47 63 71 95 24 33 48 64 53 69 11 11 -21 -74 -33 -90 -9
-12 -48 -109 -59 -148 -14 -46 8 -21 41 46 17 34 48 105 71 157 22 52 73 162
112 245 40 82 85 180 101 218 15 37 30 66 32 64 1 -2 -8 -53 -21 -113z"/>
<path d="M3140 4514 c-58 -52 -131 -115 -162 -141 -32 -25 -58 -52 -58 -59 0
-29 24 -24 73 17 219 182 312 280 265 279 -7 -1 -60 -44 -118 -96z"/>
<path d="M3469 4487 c-125 -100 -280 -240 -276 -250 8 -24 27 -15 98 44 176
147 267 233 262 245 -8 21 -12 18 -84 -39z"/>
<path d="M1618 4353 c-32 -27 -258 -223 -268 -233 -3 -3 -34 -30 -70 -60 -189
-159 -237 -210 -199 -210 14 0 53 31 284 229 257 221 305 264 305 278 0 24
-19 22 -52 -4z"/>
<path d="M3525 4309 c-87 -76 -101 -94 -85 -104 14 -9 41 10 124 87 44 40 67
68 62 76 -4 7 -10 12 -14 12 -4 0 -43 -32 -87 -71z"/>
<path d="M1475 3950 c-121 -104 -221 -196 -223 -204 -6 -27 31 -18 68 17 19
18 49 44 66 57 58 46 299 257 317 277 14 16 15 22 5 31 -10 8 -67 -36 -233
-178z"/>
<path d="M1798 3906 c-10 -7 -66 -58 -124 -112 -59 -54 -113 -103 -120 -107
-19 -11 -18 -37 2 -37 25 0 274 229 274 251 0 22 -8 23 -32 5z"/>
<path d="M800 2989 c-167 -147 -164 -143 -148 -157 15 -12 26 -5 187 134 97
83 126 122 96 130 -5 1 -66 -47 -135 -107z"/>
<path d="M980 2849 c-209 -183 -250 -222 -250 -235 0 -28 29 -12 131 73 152
128 249 223 249 244 0 11 -3 19 -7 19 -5 -1 -60 -46 -123 -101z"/>
<path d="M1110 2698 c-86 -78 -102 -100 -81 -113 17 -10 193 150 197 180 5 31
-28 12 -116 -67z"/>
<path d="M4227 3538 c-256 -210 -317 -262 -317 -270 0 -24 34 -15 80 21 152
120 320 266 320 277 0 29 -22 22 -83 -28z"/>
<path d="M4384 3407 c-6 -6 -71 -61 -145 -122 -73 -60 -159 -131 -191 -158
-38 -31 -55 -52 -52 -62 4 -8 11 -15 18 -15 6 0 64 44 128 98 64 53 157 131
207 172 49 41 89 80 87 85 -4 15 -39 17 -52 2z"/>
<path d="M4263 3014 c-133 -117 -164 -154 -129 -154 14 0 112 79 233 188 65
59 83 93 49 92 -6 -1 -75 -57 -153 -126z"/>
<path d="M4337 2765 c-109 -99 -137 -135 -103 -135 14 0 236 196 236 208 0 4
-4 13 -8 20 -6 9 -42 -18 -125 -93z"/>
<path d="M2660 2379 c-52 -45 -134 -113 -182 -151 -49 -39 -88 -74 -88 -78 0
-4 7 -11 16 -14 10 -4 58 28 141 97 69 56 151 122 182 147 55 45 70 73 41 77
-8 1 -58 -34 -110 -78z"/>
<path d="M2685 2120 c-76 -65 -141 -122 -143 -128 -1 -5 4 -12 12 -15 8 -3 51
24 103 66 154 124 196 164 190 181 -4 9 -10 16 -14 15 -4 0 -71 -54 -148 -119z"/>
<path d="M2800 1943 c-74 -62 -93 -91 -65 -100 15 -5 165 135 165 153 0 25
-17 16 -100 -53z"/>
<path d="M3824 1928 c-38 -29 -262 -227 -268 -236 -3 -5 -1 -14 4 -22 6 -10
23 -1 72 40 129 108 246 215 244 224 -4 19 -23 16 -52 -6z"/>
<path d="M3889 1752 c-110 -108 -133 -142 -97 -142 15 0 238 221 238 236 0 35
-31 15 -141 -94z"/>
<path d="M1839 1472 c-74 -72 -119 -124 -115 -131 5 -8 13 -8 29 0 32 18 227
210 227 225 0 34 -28 15 -141 -94z"/>
<path d="M2038 1342 c-129 -127 -141 -142 -128 -156 14 -14 30 -1 158 127 123
124 141 145 128 156 -13 11 -37 -8 -158 -127z"/>
<path d="M2261 1246 c-94 -96 -112 -126 -77 -126 7 0 56 45 109 99 67 69 95
104 91 115 -3 9 -9 16 -13 16 -4 0 -53 -47 -110 -104z"/>
</g>
</svg>
